# xmcd
#
# Track frame offsets:
#        150
#        17132
#        37930
#        55867
#        75335
#        92827
#        112950
#        130502
#        148980
#        165765
#        183940
#        204222
#        231337
#
# Disc length: 4440 seconds
#
# Revision: 0
# Processed by: cddbd v1.5.1PL0 Copyright (c) Steve Scherf et al.
# Submitted via: ExactAudioCopy v0.95a5
#
DISCID=9711560d
DTITLE=Lene Marlin - Lost in a moment
DYEAR=2005
DGENRE=Pop
TTITLE0=My lucky day
TTITLE1=All I can say
TTITLE2=How would it be
TTITLE3=Hope you're happy
TTITLE4=What if
TTITLE5=Leave my mind
TTITLE6=When you were around
TTITLE7=Never to know
TTITLE8=Eyes closed
TTITLE9=It's true
TTITLE10=Wish I could
TTITLE11=Blanket in a park
TTITLE12=data
EXTD=
EXTT0=
EXTT1=
EXTT2=
EXTT3=
EXTT4=
EXTT5=
EXTT6=
EXTT7=
EXTT8=
EXTT9=
EXTT10=
EXTT11=
EXTT12=
PLAYORDER=
